<?xml version="1.0" encoding="UTF-8" standalone="no"?>
<!DOCTYPE svg PUBLIC "-//W3C//DTD SVG 1.1//EN" "http://www.w3.org/Graphics/SVG/1.1/DTD/svg11.dtd">
<svg version="1.1" xmlns="http://www.w3.org/2000/svg" xmlns:xlink="http://www.w3.org/1999/xlink" preserveAspectRatio="xMidYMid meet" viewBox="0 0 640 640" width="75" height="75"><defs><path d="M640 320C640 496.61 496.61 640 320 640C143.39 640 0 496.61 0 320C0 143.39 143.39 0 320 0C496.61 0 640 143.39 640 320Z" ></path><path d="M610 321.22C610 481.4 479.96 611.45 319.78 611.45C159.6 611.45 29.55 481.4 29.55 321.22C29.55 161.04 159.6 31 319.78 31C479.96 31 610 161.04 610 321.22Z" ></path><path d="M156.32 131.8L225.64 131.06L226.9 249.39L157.57 250.13L156.32 131.8Z" ></path><path d="M329.42 312.31L529.12 510.31L449.07 510.31L317.98 384.57L228.04 384.57L228.04 510.31L160.2 510.31L160.2 312.31L329.42 312.31" ></path><path d="M485.41 249.73C485.41 315.98 426.22 369.77 353.32 369.77C280.42 369.77 221.24 315.98 221.24 249.73C221.24 183.48 280.42 129.69 353.32 129.69C426.22 129.69 485.41 183.48 485.41 249.73Z" ></path><path d="M427.61 247.73C427.61 283.28 399.79 312.14 365.52 312.14C331.24 312.14 303.42 283.28 303.42 247.73C303.42 212.18 331.24 183.32 365.52 183.32C399.79 183.32 427.61 212.18 427.61 247.73Z"></path><path d="M338.24 264.14L472.82 390.29L443.38 421.69L308.8 295.54L338.24 264.14Z"></path><path d="M133.13 129.69L360.16 129.69L360.16 185.32L133.13 185.32L133.13 129.69Z" ></path><path d="M220.24 183.32L376.52 183.32L376.52 312.14L220.24 312.14L220.24 183.32Z" ></path></defs><g><g><g><use xlink:href="#a4DdZFIAO8" opacity="1" fill="#db4c39" fill-opacity="1"></use></g><g><use xlink:href="#afKNYdlai" opacity="1" fill="#212121" fill-opacity="1"></use></g><g><use xlink:href="#b4mgYejbK5" opacity="1" fill="#db4c39" fill-opacity="1"></use></g><g><use xlink:href="#fcsBRKaTH" opacity="1" fill="#db4c39" fill-opacity="1"></use><g><use xlink:href="#fcsBRKaTH" opacity="1" fill-opacity="0" stroke="#000000" stroke-width="1" stroke-opacity="1"></use></g></g><g><use xlink:href="#f2qi5ve0tR" opacity="1" fill="#db4c39" fill-opacity="1"></use></g><g><use xlink:href="#f3H5LptkGe" opacity="1" fill="#212121" fill-opacity="1"></use></g><g><use xlink:href="#i4Y7lNdze9" opacity="1" fill="#212121" fill-opacity="1"></use></g><g><use xlink:href="#d7yTj7hmLr" opacity="1" fill="#db4c39" fill-opacity="1"></use></g><g><use xlink:href="#a1rfGwktxr" opacity="1" fill="#212121" fill-opacity="1"></use></g></g></g></svg>